<svg viewBox="0 0 15 15" fill="none" xmlns="http://www.w3.org/2000/svg">
<g id="Icon">
<path id="Vector" d="M12.1 3.9C12.5 4 12.8 4.3 12.9 4.7C13 5.3 13 7.5 13 7.5C13 7.5 13 9.7 12.9 10.3C12.8 10.7 12.5 11 12.1 11.1C11.5 11.3 7.5 11.3 7.5 11.3C7.5 11.3 3.5 11.3 2.9 11.1C2.5 11 2.2 10.7 2.1 10.3C2 9.7 2 7.5 2 7.5C2 7.5 2 5.3 2.1 4.7C2.2 4.3 2.5 4 2.9 3.9C3.5 3.7 7.5 3.7 7.5 3.7C7.5 3.7 11.5 3.7 12.1 3.9Z" stroke="#1D1D1F" stroke-width="1.1" stroke-linecap="round" stroke-linejoin="round"/>
<path id="Vector_2" d="M6.2 5.8V9.2L9.4 7.5L6.2 5.8Z" fill="#1D1D1F"/>
</g>
</svg>
